<?xml version="1.0" encoding="iso-8859-1"?>
<!-- Generator: Adobe Illustrator 19.0.0, SVG Export Plug-In . SVG Version: 6.00 Build 0)  -->
<svg version="1.1" id="Capa_1" xmlns="http://www.w3.org/2000/svg" xmlns:xlink="http://www.w3.org/1999/xlink" x="0px" y="0px"
	 viewBox="0 0 512 512" style="enable-background:new 0 0 512 512;" xml:space="preserve">
<g>
	<circle style="fill:#36B6D6;" cx="256" cy="256" r="256"/>
	<path style="fill:#A0C7E7;" d="M308.57,285.319c27.63-1.942,49.346-21.981,49.346-46.345c0-29.308-37.164-90.924-49.699-110.874
		c-0.849-1.436-2.393-2.317-4.061-2.317s-3.212,0.881-4.061,2.317c-13.015,20.577-24.834,41.887-35.399,63.823"/>
	<path style="fill:#BDDCF3;" d="M240.398,151.238c-1.307-2.093-3.601-3.365-6.068-3.365s-4.761,1.272-6.068,3.365
		c-18.698,29.79-74.178,121.857-74.178,165.52c0,38.335,35.958,69.459,80.246,69.459s80.246-31.125,80.246-69.459
		C314.576,273.095,259.097,181.028,240.398,151.238z"/>
	<path style="fill:#FFFFFF;" d="M207.845,346.492c-1.983,0.001-3.909-0.667-5.466-1.897c-5.492-4.26-10.064-9.588-13.44-15.664
		c-3.387-6.083-5.174-12.926-5.194-19.888c0.29-7.484,1.632-14.89,3.987-22c1.39-4.673,6.305-7.334,10.978-5.944
		c4.673,1.39,7.334,6.305,5.944,10.978c-1.862,5.478-2.957,11.187-3.254,16.966c0.029,4.006,1.073,7.938,3.034,11.431
		c2.237,3.985,5.259,7.475,8.883,10.258c2.952,2.33,4.105,6.274,2.871,9.827C214.955,344.113,211.605,346.494,207.845,346.492
		L207.845,346.492z"/>
</g>
<g>
</g>
<g>
</g>
<g>
</g>
<g>
</g>
<g>
</g>
<g>
</g>
<g>
</g>
<g>
</g>
<g>
</g>
<g>
</g>
<g>
</g>
<g>
</g>
<g>
</g>
<g>
</g>
<g>
</g>
</svg>
