<?xml version="1.0" encoding="iso-8859-1"?>
<!-- Generator: Adobe Illustrator 19.0.0, SVG Export Plug-In . SVG Version: 6.00 Build 0)  -->
<svg version="1.1" id="Capa_1" xmlns="http://www.w3.org/2000/svg" xmlns:xlink="http://www.w3.org/1999/xlink" x="0px" y="0px"
	 viewBox="0 0 394.971 394.971" style="enable-background:new 0 0 394.971 394.971;" xml:space="preserve">
<path style="fill:#1185E0;" d="M378.775,328.62H102.4c-4.702,0-9.404-2.09-12.539-6.269L3.135,206.89
	c-4.18-5.747-4.18-13.061,0-18.808L90.384,72.62c3.135-4.18,7.837-6.269,12.539-6.269h276.376c8.882,0,15.673,6.792,15.673,15.673
	c0,1.567,0,2.612-0.522,4.18v226.743C394.449,321.829,387.657,328.62,378.775,328.62z M110.237,297.273h252.865V97.698H110.759
	l-75.233,99.788L110.237,297.273z"/>
<g>
	<path style="fill:#4DCFE0;" d="M204.8,251.298c-4.18,0-7.837-1.567-10.971-4.702c-6.269-6.269-6.269-16.196,0-21.943l76.8-76.278
		c6.269-6.269,16.196-6.269,21.943,0c6.269,6.269,6.269,16.196,0,21.943l-76.8,76.278C212.637,249.731,208.98,251.298,204.8,251.298
		z"/>
	<path style="fill:#4DCFE0;" d="M281.6,251.298c-4.18,0-7.837-1.567-10.971-4.702l-76.8-76.278c-6.269-6.269-6.269-16.196,0-21.943
		c6.269-6.269,16.196-6.269,21.943,0l76.8,76.278c6.269,6.269,6.269,16.196,0,21.943C289.437,249.731,285.78,251.298,281.6,251.298z
		"/>
</g>
<g>
</g>
<g>
</g>
<g>
</g>
<g>
</g>
<g>
</g>
<g>
</g>
<g>
</g>
<g>
</g>
<g>
</g>
<g>
</g>
<g>
</g>
<g>
</g>
<g>
</g>
<g>
</g>
<g>
</g>
</svg>
