<svg viewBox="1 -64 511.99998 511" xmlns="http://www.w3.org/2000/svg"><path d="m458.777344 90.457031v19.988281h-79.960938v-19.988281c0-11.046875 8.945313-19.992187 19.988282-19.992187h39.980468c11.046875 0 19.992188 8.945312 19.992188 19.992187zm0 0" fill="#ffe781"/><path d="m378.816406 110.445312h79.960938v99.953126h-79.960938zm0 0" fill="#424d63"/><path d="m72.964844 30.484375h142.929687v59.972656h-142.929687zm0 0" fill="#ffe781"/><path d="m235.886719 90.457031h102.949219v119.941407h-102.949219zm0 0" fill="#83c2b1"/><path d="m52.972656 90.457031v79.960938l142.933594 39.980469h39.980469v-119.941407zm0 0" fill="#fff"/><path d="m501.753906 210.398438c0 33.613281-16.832031 63.996093-39.109375 85.777343-17.230469-11.90625-38.011719-10.40625-54.34375 4.488281-18.160156 16.5625-41.808593 16.5625-59.972656 0-18.160156-16.5625-41.808594-16.5625-59.96875 0s-44.808594 16.5625-62.96875 0-41.808594-16.5625-59.972656 0c-18.160157 16.5625-44.808594 16.5625-62.96875 0-11.113281-10.136718-24.277344-14.0625-36.980469-11.804687-32.234375-29.257813-55.472656-71.484375-55.472656-118.441406h165.917968l19.992188 39.980469zm0 0" fill="#e87288"/><path d="m419.046875 240.382812c-5.519531 0-9.996094 4.476563-9.996094 9.996094 0 5.515625 4.476563 9.996094 9.996094 9.996094 5.515625 0 9.992187-4.480469 9.992187-9.996094 0-5.519531-4.476562-9.996094-9.992187-9.996094zm0 0"/><path d="m379.066406 240.382812c-5.519531 0-9.996094 4.476563-9.996094 9.996094 0 5.515625 4.476563 9.996094 9.996094 9.996094 5.515625 0 9.992188-4.480469 9.992188-9.996094 0-5.519531-4.476563-9.996094-9.992188-9.996094zm0 0"/><path d="m339.085938 240.382812c-5.519532 0-9.996094 4.476563-9.996094 9.996094 0 5.515625 4.476562 9.996094 9.996094 9.996094 5.515624 0 9.992187-4.480469 9.992187-9.996094 0-5.519531-4.476563-9.996094-9.992187-9.996094zm0 0"/><path d="m73.214844 220.390625c-5.519532 0-9.996094 4.480469-9.996094 9.996094 0 5.519531 4.476562 9.996093 9.996094 9.996093 5.515625 0 9.996094-4.476562 9.996094-9.996093 0-5.515625-4.480469-9.996094-9.996094-9.996094zm0 0"/><path d="m501.753906 200.402344h-32.984375v-109.945313c0-16.5625-13.421875-29.988281-29.984375-29.988281h-9.996094v-49.660156c0-5.011719-3.550781-9.488282-8.511718-10.203125-6.179688-.886719-11.476563 3.882812-11.476563 9.890625v49.972656h-9.996093c-16.558594 0-29.984376 13.425781-29.984376 29.988281v109.945313h-19.992187v-109.945313c0-5.519531-4.472656-9.996093-9.992187-9.996093h-112.945313v-49.976563c0-5.519531-4.476563-9.996094-9.996094-9.996094h-142.929687c-5.519532 0-9.996094 4.476563-9.996094 9.996094v49.976563h-9.996094c-5.519531 0-9.992187 4.476562-9.992187 9.996093v69.964844h-32.984375c-5.476563 0-9.99218775 4.40625-9.996094 9.882813-.03125 41.175781 17.046875 82.175781 47.289062 114.628906-4.0625 2.253906-7.9375 5.050781-11.542968 8.34375-7.285156 6.640625-18.25 9.710937-25.878906 9.808594-4.140626.050781-7.925782 2.554687-9.265626 6.472656-2.417968 7.054687 2.8125 13.644531 9.519532 13.515625 13.933594-.179688 29.277344-6.074219 39.097656-15.03125 14.757812-13.480469 32.625-12.640625 46.496094.003906 10.628906 9.695313 24.203125 15.035156 38.21875 15.035156 14.019531 0 27.589844-5.339843 38.21875-15.035156 14.34375-13.074219 32.160156-13.074219 46.503906 0 10.625 9.695313 24.199219 15.035156 38.21875 15.035156 14.015625 0 27.589844-5.339843 38.21875-15.035156 14.339844-13.074219 32.160156-13.074219 46.5 0 21.964844 20.035156 51.476562 20.03125 73.441406.003906 14.34375-13.082031 32.222656-13.03125 46.503906 0 10.21875 9.3125 26.050782 15.21875 40.347657 15.023438 5.519531-.074219 9.933593-4.609375 9.863281-10.128907-.074219-5.519531-4.613281-9.933593-10.125-9.859374-7.011719.125-16.828125-2.335938-24.257812-7.878907 22.257812-25.019531 34.390624-54.777343 34.382812-84.839843 0-5.507813-4.488281-9.964844-9.996094-9.964844zm-112.945312-79.960938h59.972656v79.960938h-59.972656zm9.996094-39.980468h39.980468c5.519532 0 9.996094 4.476562 9.996094 9.996093v9.992188h-59.972656v-9.992188c0-5.519531 4.476562-9.996093 9.996094-9.996093zm-69.964844 119.941406h-82.960938v-99.953125h82.960938zm-245.878906-159.921875h122.9375v39.980469h-122.9375zm-19.992188 59.96875h162.921875v99.953125h-23.808594l-17.226562-34.457032c-1.695313-3.386718-5.15625-5.523437-8.941407-5.523437h-112.945312zm398.6875 183.421875c-19.597656-9.535156-42.167969-6.089844-59.476562 9.6875-14.375 13.113281-32.238282 13.113281-46.617188 0-22.039062-20.097656-51.660156-20.078125-73.683594.054687-14.054687 12.847657-35.449218 12.847657-49.503906 0-22.023438-20.132812-51.644531-20.152343-73.683594-.054687-14.375 13.113281-35.246094 13.113281-49.625 0-11.832031-10.789063-25.996094-15.972656-40.386718-14.925782-28.550782-27.285156-45.894532-62.421874-48.644532-98.222656h149.738282l17.269531 34.542969c1.695312 3.394531 5.167969 5.4375 8.960937 5.4375h296.03125c-2.511718 22.238281-13.214844 44.726563-30.378906 63.480469zm0 0"/><path d="m408.800781 150.738281v19.367188c0 5.011719 3.554688 9.488281 8.511719 10.199219 6.179688.886718 11.476562-3.882813 11.476562-9.886719v-19.992188c0-6.003906-5.296874-10.773437-11.476562-9.886719-4.957031.710938-8.511719 5.1875-8.511719 10.199219zm0 0"/><path d="m156.175781 220.390625h-42.980469c-5.519531 0-9.996093 4.476563-9.996093 9.996094s4.476562 9.996093 9.996093 9.996093h42.980469c5.519531 0 9.992188-4.476562 9.992188-9.996093s-4.472657-9.996094-9.992188-9.996094zm0 0"/><path d="m502.132812 383.3125c5.519532-.074219 9.9375-4.605469 9.867188-10.125-.074219-5.476562-4.535156-9.863281-9.996094-9.863281-.042968 0-.089844 0-.136718 0-7.78125.128906-19.035157-2.890625-26.628907-9.808594-21.972656-20.027344-51.5-20.027344-73.476562 0-14.347657 13.078125-32.175781 13.078125-46.523438 0-21.972656-20.027344-51.5-20.027344-73.472656 0-14.027344 12.785156-35.40625 12.941406-49.398437.121094-22.03125-20.1875-51.703126-20.1875-73.734376 0-13.992187 12.820312-35.367187 12.664062-49.394531-.121094-21.976562-20.027344-51.5-20.027344-73.476562 0-7.25 6.609375-18.144531 9.679687-25.777344 9.804687-5.058594.085938-9.421875 3.921876-9.9296875 8.953126-.6093755 6.054687 4.1562505 11.097656 10.0742185 11.039062 13.9375-.175781 29.289063-6.074219 39.109375-15.023438 14.351563-13.078124 32.175781-13.078124 46.523438 0 10.632812 9.691407 24.214843 15.03125 38.238281 15.03125s27.605469-5.339843 38.238281-15.03125c14.347657-13.078124 32.175781-13.078124 46.523438 0 10.632812 9.691407 24.214843 15.03125 38.238281 15.03125s27.605469-5.339843 38.238281-15.03125c14.347657-13.078124 32.175781-13.078124 46.523438 0 21.976562 20.03125 51.503906 20.03125 73.476562 0 14.347657-13.078124 32.175781-13.078124 46.527344.003907 10.226563 9.3125 26.0625 15.242187 40.367187 15.019531zm0 0"/><path d="m9.984375 363.320312c7.628906-.125 18.527344-3.195312 25.777344-9.804687 21.972656-20.027344 51.5-20.027344 73.476562 0 14.023438 12.785156 35.402344 12.941406 49.394531.121094 22.03125-20.1875 51.703126-20.1875 73.734376 0 13.992187 12.820312 35.371093 12.664062 49.394531-.121094 21.976562-20.027344 51.503906-20.027344 73.476562 0 14.347657 13.078125 32.175781 13.078125 46.523438 0 21.972656-20.027344 51.503906-20.027344 73.476562 0 7.59375 6.917969 18.847657 9.9375 26.628907 9.808594h.136718c4.417969 0 8.183594 2.875 9.496094 6.871093v-54.933593c-.988281 4.414062-4.890625 7.746093-9.613281 7.808593-14.296875.199219-30.128907-5.707031-40.347657-15.019531-14.28125-13.035156-32.160156-13.082031-46.503906-.003906-21.964844 20.03125-51.476562 20.03125-73.441406 0-14.339844-13.074219-32.160156-13.078125-46.5 0-10.628906 9.695313-24.203125 15.03125-38.21875 15.03125-14.019531 0-27.59375-5.335937-38.21875-15.03125-14.34375-13.074219-32.160156-13.078125-46.503906 0-10.628906 9.695313-24.199219 15.03125-38.21875 15.03125-14.015625 0-27.589844-5.335937-38.21875-15.03125-13.871094-12.644531-31.738282-13.484375-46.496094-.003906-9.820312 8.953125-25.164062 14.851562-39.097656 15.027343-4.828125.09375-8.875-3.300781-9.871094-7.84375v55.886719c1.007812-4.445312 5.074219-7.714843 9.734375-7.792969zm0 0" fill="#cae9fc"/></svg>