<?xml version="1.0" encoding="iso-8859-1"?>
<!-- Generator: Adobe Illustrator 19.0.0, SVG Export Plug-In . SVG Version: 6.00 Build 0)  -->
<svg version="1.1" id="Capa_1" xmlns="http://www.w3.org/2000/svg" xmlns:xlink="http://www.w3.org/1999/xlink" x="0px" y="0px"
	 viewBox="0 0 396.016 396.016" style="enable-background:new 0 0 396.016 396.016;" xml:space="preserve">
<path style="fill:#3A2C51;" d="M151.51,31.347h91.951v28.735h31.347V26.122C274.808,11.494,263.314,0,248.686,0h-102.4
	c-14.629,0-26.122,11.494-26.122,26.122v33.959h31.347V31.347z"/>
<path style="fill:#4DCFE0;" d="M373.551,55.902h-37.094c0,0,0,0-0.522,0h-61.127h-31.347H151.51h-31.347H57.992H21.42
	c-8.882,0-15.673,6.792-15.673,15.673s6.792,15.673,15.673,15.673h22.465L70.008,381.91c0.522,7.837,7.314,14.106,15.673,14.106
	h224.131c8.359,0,15.151-6.269,15.673-14.106l26.122-294.661h22.988c8.882,0,15.673-6.792,15.673-15.673
	S382.433,55.902,373.551,55.902z"/>
<g>
	<path style="fill:#00BBD3;" d="M213.159,318.694V133.224c0-8.882-6.792-15.673-15.673-15.673s-15.673,6.792-15.673,15.673v185.469
		c0,8.882,6.792,15.673,15.673,15.673S213.159,327.576,213.159,318.694z"/>
	<path style="fill:#00BBD3;" d="M258.612,117.551c-8.882-0.522-15.673,6.269-16.196,15.151l-6.792,185.469
		c-0.522,8.882,6.269,15.673,15.151,16.196h0.522c8.359,0,15.151-6.792,15.673-15.151l6.792-185.469
		C274.286,125.388,267.494,118.073,258.612,117.551z"/>
	<path style="fill:#00BBD3;" d="M143.673,334.367L143.673,334.367c9.404-0.522,15.673-7.837,15.673-16.196l-6.792-185.469
		c-0.522-8.882-7.314-15.673-16.196-15.151c-8.882,0.522-15.151,7.837-15.151,16.196L128,319.216
		C128.522,327.576,135.314,334.367,143.673,334.367z"/>
</g>
<g>
</g>
<g>
</g>
<g>
</g>
<g>
</g>
<g>
</g>
<g>
</g>
<g>
</g>
<g>
</g>
<g>
</g>
<g>
</g>
<g>
</g>
<g>
</g>
<g>
</g>
<g>
</g>
<g>
</g>
</svg>
