<svg xmlns="http://www.w3.org/2000/svg" height="511pt" version="1.1" viewBox="1 -75 511.99923 511" width="511pt">
<g id="surface1">
<path d="M 229.515625 71.121094 L 282.484375 71.121094 L 282.484375 106.429688 L 229.515625 106.429688 Z M 229.515625 71.121094 " style=" stroke:none;fill-rule:nonzero;fill:rgb(47.058824%,72.54902%,92.156863%);fill-opacity:1;" />
<path d="M 308.964844 71.121094 L 308.964844 35.808594 L 203.035156 35.808594 L 203.035156 71.121094 Z M 308.964844 71.121094 " style=" stroke:none;fill-rule:nonzero;fill:rgb(10.196078%,43.529412%,69.019608%);fill-opacity:1;" />
<path d="M 388.414062 35.808594 L 388.414062 18.15625 C 388.414062 8.402344 380.507812 0.5 370.757812 0.5 L 141.242188 0.5 C 131.492188 0.5 123.585938 8.402344 123.585938 18.15625 L 123.585938 35.808594 Z M 388.414062 35.808594 " style=" stroke:none;fill-rule:nonzero;fill:rgb(67.058824%,13.72549%,0%);fill-opacity:1;" />
<path d="M 326.621094 141.742188 L 326.621094 106.429688 L 185.378906 106.429688 L 185.378906 141.742188 Z M 326.621094 141.742188 " style=" stroke:none;fill-rule:nonzero;fill:rgb(11.764706%,50.588235%,80.784314%);fill-opacity:1;" />
<path d="M 105.929688 362.429688 L 141.242188 362.429688 L 141.242188 177.050781 L 105.929688 177.050781 Z M 105.929688 362.429688 " style=" stroke:none;fill-rule:nonzero;fill:rgb(10.196078%,43.529412%,69.019608%);fill-opacity:1;" />
<path d="M 70.621094 344.777344 L 105.929688 344.777344 L 105.929688 203.535156 L 70.621094 203.535156 Z M 70.621094 344.777344 " style=" stroke:none;fill-rule:nonzero;fill:rgb(11.764706%,50.588235%,80.784314%);fill-opacity:1;" />
<path d="M 370.757812 362.429688 L 406.066406 362.429688 L 406.066406 177.050781 L 370.757812 177.050781 Z M 370.757812 362.429688 " style=" stroke:none;fill-rule:nonzero;fill:rgb(10.196078%,43.529412%,69.019608%);fill-opacity:1;" />
<path d="M 441.378906 344.777344 L 441.378906 203.535156 L 406.066406 203.535156 L 406.066406 344.777344 Z M 441.378906 344.777344 " style=" stroke:none;fill-rule:nonzero;fill:rgb(11.764706%,50.588235%,80.784314%);fill-opacity:1;" />
<path d="M 0 221.1875 L 70.621094 221.1875 L 70.621094 274.15625 L 0 274.15625 Z M 0 221.1875 " style=" stroke:none;fill-rule:nonzero;fill:rgb(47.058824%,72.54902%,92.156863%);fill-opacity:1;" />
<path d="M 0 274.15625 L 70.621094 274.15625 L 70.621094 327.121094 L 0 327.121094 Z M 0 274.15625 " style=" stroke:none;fill-rule:nonzero;fill:rgb(35.294118%,66.666667%,90.588235%);fill-opacity:1;" />
<path d="M 141.242188 327.121094 L 185.46875 327.121094 C 214.621094 366.074219 269.835938 374.019531 308.789062 344.863281 C 315.519531 339.824219 321.496094 333.851562 326.53125 327.121094 L 370.757812 327.121094 L 370.757812 274.15625 L 141.242188 274.15625 Z M 141.242188 327.121094 " style=" stroke:none;fill-rule:nonzero;fill:rgb(35.294118%,66.666667%,90.588235%);fill-opacity:1;" />
<path d="M 326.53125 221.1875 C 321.59375 214.484375 315.671875 208.5625 308.964844 203.621094 C 306.148438 201.5 303.199219 199.550781 300.136719 197.796875 L 300.136719 141.742188 L 211.863281 141.742188 L 211.863281 197.796875 C 208.800781 199.554688 205.851562 201.5 203.035156 203.621094 C 196.328125 208.5625 190.40625 214.484375 185.46875 221.1875 L 141.242188 221.1875 L 141.242188 274.15625 L 370.757812 274.15625 L 370.757812 221.1875 Z M 326.53125 221.1875 " style=" stroke:none;fill-rule:nonzero;fill:rgb(47.058824%,72.54902%,92.156863%);fill-opacity:1;" />
<path d="M 441.378906 274.15625 L 512 274.15625 L 512 327.121094 L 441.378906 327.121094 Z M 441.378906 274.15625 " style=" stroke:none;fill-rule:nonzero;fill:rgb(35.294118%,66.666667%,90.588235%);fill-opacity:1;" />
<path d="M 441.378906 221.1875 L 512 221.1875 L 512 274.15625 L 441.378906 274.15625 Z M 441.378906 221.1875 " style=" stroke:none;fill-rule:nonzero;fill:rgb(47.058824%,72.54902%,92.156863%);fill-opacity:1;" />
</g>
</svg>